<?xml version="1.0" encoding="UTF-8" standalone="no"?><!-- Generator: Gravit.io -->
<svg xmlns="http://www.w3.org/2000/svg"
     style="isolation:isolate" viewBox="0 0 2000 2000" width="2000pt" height="2000pt">
    <defs>
        <clipPath id="_clipPath_RtnToLOsCeJ9oM6Rs5aOpOOG8Da5OAp4">
            <rect width="2000" height="2000"/>
        </clipPath>
    </defs>
    <g clip-path="url(#_clipPath_RtnToLOsCeJ9oM6Rs5aOpOOG8Da5OAp4)">
        <g>
            <path d=" M 440.812 1203.904 L 440.812 1203.904 L 440.812 926.212 L 440.812 926.212 Q 440.812 860.512 435.556 834.232 L 435.556 834.232 L 435.556 834.232 Q 430.3 807.952 430.3 802.696 L 430.3 802.696 L 430.3 802.696 Q 430.3 788.68 465.778 781.672 L 465.778 781.672 L 465.778 781.672 Q 501.256 774.664 518.776 774.664 L 518.776 774.664 L 518.776 774.664 Q 536.296 774.664 541.99 778.168 L 541.99 778.168 L 541.99 778.168 Q 547.684 781.672 551.188 789.118 L 551.188 789.118 L 551.188 789.118 Q 554.692 796.564 556.444 801.382 L 556.444 801.382 L 556.444 801.382 Q 558.196 806.2 560.386 817.588 L 560.386 817.588 L 560.386 817.588 Q 562.576 828.976 563.452 831.604 L 563.452 831.604 L 563.452 831.604 Q 584.476 803.572 619.078 784.3 L 619.078 784.3 L 619.078 784.3 Q 653.68 765.028 693.1 765.028 L 693.1 765.028 L 693.1 765.028 Q 783.328 765.028 808.732 831.604 L 808.732 831.604 L 808.732 831.604 Q 830.632 803.572 866.548 784.3 L 866.548 784.3 L 866.548 784.3 Q 902.464 765.028 943.636 765.028 L 943.636 765.028 L 943.636 765.028 Q 1009.336 765.028 1040.434 799.63 L 1040.434 799.63 L 1040.434 799.63 Q 1071.532 834.232 1071.532 906.94 L 1071.532 906.94 L 1071.532 1203.904 L 1071.532 1203.904 Q 1071.532 1231.936 1018.972 1231.936 L 1018.972 1231.936 L 994.444 1231.936 L 994.444 1231.936 Q 941.884 1231.936 941.884 1203.904 L 941.884 1203.904 L 941.884 926.212 L 941.884 926.212 Q 941.884 871.9 890.2 871.9 L 890.2 871.9 L 890.2 871.9 Q 847.276 871.9 820.996 922.708 L 820.996 922.708 L 820.996 1203.904 L 820.996 1203.904 Q 820.996 1231.936 768.436 1231.936 L 768.436 1231.936 L 743.908 1231.936 L 743.908 1231.936 Q 691.348 1231.936 691.348 1203.904 L 691.348 1203.904 L 691.348 926.212 L 691.348 926.212 Q 691.348 871.9 639.664 871.9 L 639.664 871.9 L 639.664 871.9 Q 596.74 871.9 570.46 922.708 L 570.46 922.708 L 570.46 1203.904 L 570.46 1203.904 Q 570.46 1231.936 517.9 1231.936 L 517.9 1231.936 L 493.372 1231.936 L 493.372 1231.936 Q 440.812 1231.936 440.812 1203.904 Z  M 1156.504 1174.996 L 1156.504 1174.996 L 1156.504 1174.996 Q 1156.504 1160.98 1173.148 1135.576 L 1173.148 1135.576 L 1173.148 1135.576 Q 1189.792 1110.172 1202.932 1110.172 L 1202.932 1110.172 L 1202.932 1110.172 Q 1204.684 1110.172 1234.468 1122.436 L 1234.468 1122.436 L 1234.468 1122.436 Q 1264.252 1134.7 1288.78 1134.7 L 1288.78 1134.7 L 1288.78 1134.7 Q 1342.216 1134.7 1342.216 1095.28 L 1342.216 1095.28 L 1342.216 1095.28 Q 1342.216 1074.256 1324.258 1061.554 L 1324.258 1061.554 L 1324.258 1061.554 Q 1306.3 1048.852 1280.458 1040.092 L 1280.458 1040.092 L 1280.458 1040.092 Q 1254.616 1031.332 1228.774 1019.068 L 1228.774 1019.068 L 1228.774 1019.068 Q 1202.932 1006.804 1184.974 978.772 L 1184.974 978.772 L 1184.974 978.772 Q 1167.016 950.74 1167.016 906.94 L 1167.016 906.94 L 1167.016 906.94 Q 1167.016 841.24 1210.378 803.134 L 1210.378 803.134 L 1210.378 803.134 Q 1253.74 765.028 1328.2 765.028 L 1328.2 765.028 L 1328.2 765.028 Q 1363.24 765.028 1394.776 772.036 L 1394.776 772.036 L 1394.776 772.036 Q 1457.848 786.052 1457.848 820.216 L 1457.848 820.216 L 1457.848 820.216 Q 1457.848 831.604 1444.708 858.322 L 1444.708 858.322 L 1444.708 858.322 Q 1431.568 885.04 1420.18 885.04 L 1420.18 885.04 L 1420.18 885.04 Q 1419.304 885.04 1394.338 875.842 L 1394.338 875.842 L 1394.338 875.842 Q 1369.372 866.644 1345.72 866.644 L 1345.72 866.644 L 1345.72 866.644 Q 1298.416 866.644 1298.416 898.18 L 1298.416 898.18 L 1298.416 898.18 Q 1298.416 915.7 1316.374 926.65 L 1316.374 926.65 L 1316.374 926.65 Q 1334.332 937.6 1360.174 946.798 L 1360.174 946.798 L 1360.174 946.798 Q 1386.016 955.996 1411.858 969.574 L 1411.858 969.574 L 1411.858 969.574 Q 1437.7 983.152 1455.658 1012.498 L 1455.658 1012.498 L 1455.658 1012.498 Q 1473.616 1041.844 1473.616 1084.768 L 1473.616 1084.768 L 1473.616 1084.768 Q 1473.616 1153.972 1428.502 1195.582 L 1428.502 1195.582 L 1428.502 1195.582 Q 1383.388 1237.192 1315.498 1237.192 L 1315.498 1237.192 L 1315.498 1237.192 Q 1247.608 1237.192 1202.056 1220.986 L 1202.056 1220.986 L 1202.056 1220.986 Q 1156.504 1204.78 1156.504 1174.996 Z "
                  fill="rgb(0,0,0)"/>
            <path d=" M 1528.2 1226.8 L 1528.2 1226.8 L 1528.2 1088.4 L 1528.2 1088.4 Q 1528.2 1082 1540.2 1082 L 1540.2 1082 L 1545.8 1082 L 1545.8 1082 Q 1557.8 1082 1557.8 1088.4 L 1557.8 1088.4 L 1557.8 1132.8 L 1557.8 1132.8 Q 1566.4 1126.6 1578.2 1126.6 L 1578.2 1126.6 L 1578.2 1126.6 Q 1598.2 1126.6 1609.3 1141.1 L 1609.3 1141.1 L 1609.3 1141.1 Q 1620.4 1155.6 1620.4 1180.7 L 1620.4 1180.7 L 1620.4 1180.7 Q 1620.4 1205.8 1610 1220.1 L 1610 1220.1 L 1610 1220.1 Q 1599.6 1234.4 1583 1234.4 L 1583 1234.4 L 1583 1234.4 Q 1574 1234.4 1566.9 1230.2 L 1566.9 1230.2 L 1566.9 1230.2 Q 1559.8 1226 1556.2 1219.4 L 1556.2 1219.4 L 1554.2 1228 L 1554.2 1228 Q 1553 1233.2 1542.6 1233.2 L 1542.6 1233.2 L 1540.2 1233.2 L 1540.2 1233.2 Q 1528.2 1233.2 1528.2 1226.8 Z  M 1574.2 1210.2 L 1574.2 1210.2 L 1574.2 1210.2 Q 1590.4 1210.2 1590.4 1180.1 L 1590.4 1180.1 L 1590.4 1180.1 Q 1590.4 1150 1571.8 1150 L 1571.8 1150 L 1571.8 1150 Q 1564.6 1150 1557.8 1153.8 L 1557.8 1153.8 L 1557.8 1198.4 L 1557.8 1198.4 Q 1564.6 1210.2 1574.2 1210.2 Z  M 1649.6 1220.5 L 1649.6 1220.5 L 1649.6 1220.5 Q 1637.2 1206.6 1637.2 1180.4 L 1637.2 1180.4 L 1637.2 1180.4 Q 1637.2 1154.2 1649.6 1140.4 L 1649.6 1140.4 L 1649.6 1140.4 Q 1662 1126.6 1685.8 1126.6 L 1685.8 1126.6 L 1685.8 1126.6 Q 1709.6 1126.6 1721.9 1140.4 L 1721.9 1140.4 L 1721.9 1140.4 Q 1734.2 1154.2 1734.2 1180.4 L 1734.2 1180.4 L 1734.2 1180.4 Q 1734.2 1206.6 1721.9 1220.5 L 1721.9 1220.5 L 1721.9 1220.5 Q 1709.6 1234.4 1685.8 1234.4 L 1685.8 1234.4 L 1685.8 1234.4 Q 1662 1234.4 1649.6 1220.5 Z  M 1667.2 1180.5 L 1667.2 1180.5 L 1667.2 1180.5 Q 1667.2 1211 1685.7 1211 L 1685.7 1211 L 1685.7 1211 Q 1704.2 1211 1704.2 1180.5 L 1704.2 1180.5 L 1704.2 1180.5 Q 1704.2 1150 1685.7 1150 L 1685.7 1150 L 1685.7 1150 Q 1667.2 1150 1667.2 1180.5 Z  M 1794.8 1211 L 1794.8 1211 L 1800.2 1210.2 L 1800.2 1210.2 Q 1802.8 1210.2 1804.6 1216.1 L 1804.6 1216.1 L 1804.6 1216.1 Q 1806.4 1222 1806.4 1224.6 L 1806.4 1224.6 L 1806.4 1224.6 Q 1806.4 1234.4 1787.2 1234.4 L 1787.2 1234.4 L 1787.2 1234.4 Q 1758 1234.4 1758 1202 L 1758 1202 L 1758 1151.6 L 1754.8 1151.6 L 1754.8 1151.6 Q 1748.8 1151.6 1748.8 1141.6 L 1748.8 1141.6 L 1748.8 1138.2 L 1748.8 1138.2 Q 1748.8 1128.2 1754.8 1128.2 L 1754.8 1128.2 L 1758 1128.2 L 1760.6 1109.2 L 1760.6 1109.2 Q 1761.6 1102.8 1771.4 1102.8 L 1771.4 1102.8 L 1777.6 1102.8 L 1777.6 1102.8 Q 1787.6 1102.8 1787.6 1109.2 L 1787.6 1109.2 L 1787.6 1128.2 L 1797.4 1128.2 L 1797.4 1128.2 Q 1803.4 1128.2 1803.4 1138.2 L 1803.4 1138.2 L 1803.4 1141.6 L 1803.4 1141.6 Q 1803.4 1151.6 1797.4 1151.6 L 1797.4 1151.6 L 1787.6 1151.6 L 1787.6 1202.4 L 1787.6 1202.4 Q 1787.6 1211 1794.8 1211 Z "
                  fill="rgb(255,0,0)"/>
        </g>
    </g>
</svg>
