<?xml version="1.0" encoding="UTF-8" standalone="no"?>
<svg xmlns="http://www.w3.org/2000/svg"
     style="isolation:isolate" viewBox="0 0 2000 2000" width="2000pt" height="2000pt">
    <defs>
        <clipPath id="_clipPath_7XrjMhZhlaV5thcHgIiOnOnAGbyF0yOv">
            <rect width="2000" height="2000"/>
        </clipPath>
    </defs>
    <g clip-path="url(#_clipPath_7XrjMhZhlaV5thcHgIiOnOnAGbyF0yOv)">
        <path d=" M 616.16 782.08 L 616.16 782.08 L 616.16 782.08 Q 652.076 782.08 686.678 792.154 L 686.678 792.154 L 686.678 792.154 Q 721.28 802.228 746.684 822.376 L 746.684 822.376 L 746.684 822.376 Q 772.964 804.856 805.814 793.468 L 805.814 793.468 L 805.814 793.468 Q 838.664 782.08 885.092 782.08 L 885.092 782.08 L 885.092 782.08 Q 918.38 782.08 950.354 790.84 L 950.354 790.84 L 950.354 790.84 Q 982.328 799.6 1007.294 818.434 L 1007.294 818.434 L 1007.294 818.434 Q 1032.26 837.268 1047.152 868.366 L 1047.152 868.366 L 1047.152 868.366 Q 1062.044 899.464 1062.044 944.14 L 1062.044 944.14 L 1062.044 1220.08 L 1062.044 1220.08 Q 1053.284 1222.708 1034.45 1225.336 L 1034.45 1225.336 L 1034.45 1225.336 Q 1015.616 1227.964 995.468 1227.964 L 995.468 1227.964 L 995.468 1227.964 Q 976.196 1227.964 960.866 1225.336 L 960.866 1225.336 L 960.866 1225.336 Q 945.536 1222.708 935.024 1214.824 L 935.024 1214.824 L 935.024 1214.824 Q 924.512 1206.94 918.818 1193.362 L 918.818 1193.362 L 918.818 1193.362 Q 913.124 1179.784 913.124 1157.884 L 913.124 1157.884 L 913.124 948.52 L 913.124 948.52 Q 913.124 922.24 898.232 910.414 L 898.232 910.414 L 898.232 910.414 Q 883.34 898.588 857.936 898.588 L 857.936 898.588 L 857.936 898.588 Q 845.672 898.588 831.656 904.282 L 831.656 904.282 L 831.656 904.282 Q 817.64 909.976 810.632 916.108 L 810.632 916.108 L 810.632 916.108 Q 811.508 919.612 811.508 922.678 L 811.508 922.678 L 811.508 922.678 Q 811.508 925.744 811.508 928.372 L 811.508 928.372 L 811.508 1220.08 L 811.508 1220.08 Q 801.872 1222.708 783.038 1225.336 L 783.038 1225.336 L 783.038 1225.336 Q 764.204 1227.964 744.932 1227.964 L 744.932 1227.964 L 744.932 1227.964 Q 725.66 1227.964 710.33 1225.336 L 710.33 1225.336 L 710.33 1225.336 Q 695 1222.708 684.488 1214.824 L 684.488 1214.824 L 684.488 1214.824 Q 673.976 1206.94 668.282 1193.362 L 668.282 1193.362 L 668.282 1193.362 Q 662.588 1179.784 662.588 1157.884 L 662.588 1157.884 L 662.588 948.52 L 662.588 948.52 Q 662.588 922.24 646.382 910.414 L 646.382 910.414 L 646.382 910.414 Q 630.176 898.588 607.4 898.588 L 607.4 898.588 L 607.4 898.588 Q 591.632 898.588 580.244 903.406 L 580.244 903.406 L 580.244 903.406 Q 568.856 908.224 560.972 912.604 L 560.972 912.604 L 560.972 1220.08 L 560.972 1220.08 Q 552.212 1222.708 533.378 1225.336 L 533.378 1225.336 L 533.378 1225.336 Q 514.544 1227.964 494.396 1227.964 L 494.396 1227.964 L 494.396 1227.964 Q 475.124 1227.964 459.794 1225.336 L 459.794 1225.336 L 459.794 1225.336 Q 444.464 1222.708 433.952 1214.824 L 433.952 1214.824 L 433.952 1214.824 Q 423.44 1206.94 417.746 1193.362 L 417.746 1193.362 L 417.746 1193.362 Q 412.052 1179.784 412.052 1157.884 L 412.052 1157.884 L 412.052 893.332 L 412.052 893.332 Q 412.052 869.68 422.126 855.664 L 422.126 855.664 L 422.126 855.664 Q 432.2 841.648 449.72 829.384 L 449.72 829.384 L 449.72 829.384 Q 479.504 808.36 523.742 795.22 L 523.742 795.22 L 523.742 795.22 Q 567.98 782.08 616.16 782.08 Z  M 1219.724 1112.332 L 1219.724 1112.332 L 1219.724 1112.332 Q 1210.088 1090.432 1199.138 1063.276 L 1199.138 1063.276 L 1199.138 1063.276 Q 1188.188 1036.12 1176.362 1001.08 L 1176.362 1001.08 L 1176.362 1001.08 Q 1164.536 966.04 1151.834 920.926 L 1151.834 920.926 L 1151.834 920.926 Q 1139.132 875.812 1125.116 817.12 L 1125.116 817.12 L 1125.116 817.12 Q 1137.38 804.856 1157.966 795.658 L 1157.966 795.658 L 1157.966 795.658 Q 1178.552 786.46 1203.08 786.46 L 1203.08 786.46 L 1203.08 786.46 Q 1233.74 786.46 1253.888 799.162 L 1253.888 799.162 L 1253.888 799.162 Q 1274.036 811.864 1283.672 846.904 L 1283.672 846.904 L 1352.876 1087.804 L 1356.38 1087.804 L 1356.38 1087.804 Q 1366.892 1058.02 1376.966 1022.98 L 1376.966 1022.98 L 1376.966 1022.98 Q 1387.04 987.94 1396.676 950.71 L 1396.676 950.71 L 1396.676 950.71 Q 1406.312 913.48 1414.634 876.25 L 1414.634 876.25 L 1414.634 876.25 Q 1422.956 839.02 1429.088 803.104 L 1429.088 803.104 L 1429.088 803.104 Q 1460.624 786.46 1498.292 786.46 L 1498.292 786.46 L 1498.292 786.46 Q 1528.952 786.46 1549.1 799.6 L 1549.1 799.6 L 1549.1 799.6 Q 1569.248 812.74 1569.248 845.152 L 1569.248 845.152 L 1569.248 845.152 Q 1569.248 868.804 1563.116 899.902 L 1563.116 899.902 L 1563.116 899.902 Q 1556.984 931 1546.91 966.04 L 1546.91 966.04 L 1546.91 966.04 Q 1536.836 1001.08 1523.258 1038.31 L 1523.258 1038.31 L 1523.258 1038.31 Q 1509.68 1075.54 1494.788 1111.456 L 1494.788 1111.456 L 1494.788 1111.456 Q 1479.896 1147.372 1464.128 1179.346 L 1464.128 1179.346 L 1464.128 1179.346 Q 1448.36 1211.32 1433.468 1236.724 L 1433.468 1236.724 L 1433.468 1236.724 Q 1408.94 1279.648 1387.916 1306.804 L 1387.916 1306.804 L 1387.916 1306.804 Q 1366.892 1333.96 1347.62 1349.29 L 1347.62 1349.29 L 1347.62 1349.29 Q 1328.348 1364.62 1309.076 1370.314 L 1309.076 1370.314 L 1309.076 1370.314 Q 1289.804 1376.008 1268.78 1376.008 L 1268.78 1376.008 L 1268.78 1376.008 Q 1231.988 1376.008 1209.212 1354.108 L 1209.212 1354.108 L 1209.212 1354.108 Q 1186.436 1332.208 1182.056 1297.168 L 1182.056 1297.168 L 1182.056 1297.168 Q 1210.088 1275.268 1238.12 1248.55 L 1238.12 1248.55 L 1238.12 1248.55 Q 1266.152 1221.832 1288.928 1193.8 L 1288.928 1193.8 L 1288.928 1193.8 Q 1274.036 1189.42 1256.954 1173.214 L 1256.954 1173.214 L 1256.954 1173.214 Q 1239.872 1157.008 1219.724 1112.332 Z "
              fill="rgb(255,0,0)" vector-effect="non-scaling-stroke" stroke-width="30"
              stroke="rgb(255,255,255)" stroke-linejoin="round" stroke-linecap="round"
              stroke-miterlimit="3"/>
    </g>
</svg>
